<svg width="53" height="45" viewBox="0 0 53 45" fill="none" xmlns="http://www.w3.org/2000/svg">
<g clip-path="url(#clip0_11_40)">
<path fill-rule="evenodd" clip-rule="evenodd" d="M30.091 42.7463C29.7878 42.7454 29.4905 42.6639 29.2302 42.5104C28.9699 42.3569 28.7563 42.137 28.6116 41.8739C28.3899 41.4787 28.3334 41.0137 28.4539 40.5779C28.5745 40.1421 28.8626 39.7702 29.257 39.5413C35.129 36.2405 40.1522 31.6481 43.937 26.1202C44.0619 25.9368 44.2228 25.78 44.4101 25.6591C44.5974 25.5381 44.8073 25.4556 45.0275 25.4162C45.2477 25.3768 45.4736 25.3814 45.692 25.4298C45.9103 25.4781 46.1167 25.5693 46.2988 25.6978C46.67 25.9633 46.9215 26.3615 46.9997 26.8076C47.0778 27.2537 46.9764 27.7122 46.7172 28.0855C42.6273 34.019 37.2265 38.9576 30.9222 42.5287C30.6692 42.672 30.3826 42.747 30.091 42.7463ZM49.4546 20.126C49.2912 20.1257 49.1287 20.1022 48.972 20.0562C48.5369 19.9199 48.1733 19.6205 47.9593 19.2223C47.7453 18.8241 47.6979 18.3589 47.8274 17.9265C48.217 16.4076 48.2385 14.8193 47.89 13.2906C47.5415 11.7619 46.8329 10.336 45.8218 9.12857C43.7483 6.87398 41.4692 5.78113 39.021 5.83531C35.722 5.92715 32.0259 8.18083 28.8859 12.0123C28.7461 12.1848 28.5727 12.3278 28.3759 12.4329C28.1791 12.5381 27.963 12.6032 27.7403 12.6245C27.5176 12.6457 27.2928 12.6226 27.0793 12.5566C26.8658 12.4906 26.6679 12.3829 26.4972 12.24C26.1509 11.9448 25.9339 11.5284 25.8921 11.0784C25.8503 10.6284 25.9869 10.18 26.2731 9.82744C30.0398 5.2356 34.6518 2.53194 38.9281 2.41071C42.3917 2.30143 45.5437 3.78829 48.309 6.79594C49.7166 8.44766 50.7029 10.4084 51.1855 12.514C51.668 14.6196 51.6328 16.8088 51.0827 18.8982C50.9833 19.2498 50.7706 19.5598 50.4768 19.7814C50.183 20.0029 49.8242 20.1239 49.4546 20.126ZM2.31247 19.9846C1.92498 19.9815 1.55016 19.8479 1.2499 19.606C0.949651 19.364 0.741934 19.0282 0.661101 18.6539C-0.397039 13.9913 0.534665 9.77878 3.28509 6.79409C4.61012 5.26202 6.29742 4.07651 8.19737 3.34265C10.0973 2.60879 12.1512 2.34926 14.177 2.58706C14.6291 2.6418 15.0409 2.87075 15.3227 3.22409C15.6045 3.57744 15.7334 4.02648 15.6815 4.47334C15.661 4.69468 15.5963 4.90982 15.4911 5.10629C15.3859 5.30276 15.2422 5.47667 15.0685 5.61794C14.8948 5.75921 14.6944 5.86505 14.479 5.92931C14.2635 5.99357 14.0374 6.01503 13.8135 5.99237C12.3148 5.81301 10.7944 6.0056 9.39007 6.55273C7.9857 7.09985 6.74164 7.98424 5.77048 9.12583C3.80855 11.2555 3.16701 14.3669 3.96759 17.8889C4.03019 18.1372 4.03473 18.3964 3.98098 18.6468C3.92722 18.8971 3.81653 19.1322 3.65727 19.3341C3.498 19.536 3.29437 19.6995 3.06171 19.8122C2.82905 19.9249 2.57348 19.9838 2.31434 19.9846H2.31247ZM25.9812 44.9918C25.7194 44.9914 25.4613 44.93 25.228 44.8127C17.154 40.7288 10.0537 34.9926 4.39992 27.9863C4.12382 27.6259 4.00073 27.1735 4.0568 26.725C4.11287 26.2764 4.34369 25.8671 4.70025 25.5839C4.87544 25.4465 5.07671 25.3453 5.29218 25.2861C5.50764 25.2269 5.73295 25.211 5.95476 25.2392C6.17657 25.2675 6.39041 25.3394 6.58362 25.4506C6.77684 25.5619 6.94551 25.7102 7.07969 25.8869C12.4165 32.4912 19.1164 37.8969 26.7334 41.7444C27.1391 41.9528 27.4463 42.3094 27.5894 42.7384C27.7325 43.1673 27.7003 43.6345 27.4996 44.0403C27.3626 44.3235 27.1478 44.5628 26.8796 44.7311C26.6114 44.8993 26.3007 44.9897 25.983 44.9918H25.9812ZM27.2262 34.6656C24.0825 34.6656 23.3656 30.1004 22.1187 17.0513C21.7616 13.3145 21.2697 8.16889 20.6579 5.25124C20.1837 7.84655 19.901 12.1574 19.7104 15.0612C19.0977 24.3919 18.7406 28.1884 16.0209 28.4281C13.3671 28.6641 12.1798 26.2534 11.6079 24.5048H1.6895C1.23666 24.4944 0.805877 24.3095 0.489313 23.9895C0.172749 23.6695 -0.00448608 23.2399 -0.00448608 22.7925C-0.00448608 22.3451 0.172749 21.9155 0.489313 21.5955C0.805877 21.2755 1.23666 21.0905 1.6895 21.0802H12.8874C13.2653 21.083 13.6316 21.2098 13.9285 21.4408C14.2255 21.6717 14.4362 21.9936 14.5276 22.3558L14.5536 22.4568C14.7181 23.1994 14.9709 23.9201 15.3067 24.604C15.8611 21.373 16.2028 18.1099 16.3296 14.8353C16.987 4.81591 17.4454 -0.00185013 20.6812 -0.00185013C23.7784 -0.00185013 24.3632 4.82603 25.5004 16.7216C25.9058 20.9718 26.4758 26.9348 27.2224 29.8644C27.7348 28.282 28.2946 25.9448 28.7102 24.199C30.3448 17.3617 31.2411 14.0767 33.7266 14.0767C36.1181 14.0767 36.702 16.9568 37.3864 20.2895C37.6 21.4457 37.8794 22.589 38.2232 23.7141L38.292 23.6021C38.6453 22.8557 39.2048 22.2231 39.906 21.777C40.6073 21.3308 41.4218 21.0893 42.2559 21.0802H51.3124C51.7652 21.0905 52.196 21.2755 52.5126 21.5955C52.8291 21.9155 53.0064 22.3451 53.0064 22.7925C53.0064 23.2399 52.8291 23.6695 52.5126 23.9895C52.196 24.3095 51.7652 24.4944 51.3124 24.5048H42.2559C41.7845 24.5048 41.6738 24.5967 41.1727 25.4122C40.8955 26.0313 40.4491 26.562 39.8836 26.9446C39.3181 27.3273 38.6559 27.5469 37.9712 27.5786C35.4142 27.5786 34.7606 24.3753 34.066 20.981C33.947 20.4006 33.787 19.6365 33.6224 18.9422C33.0506 20.6513 32.4332 23.232 32.0102 25.0035C30.4053 31.7039 29.5963 34.6656 27.2281 34.6656H27.2262Z" fill="#F22283"/>
</g>
<defs>
<clipPath id="clip0_11_40">
<rect width="53" height="45" fill="white"/>
</clipPath>
</defs>
</svg>
