<svg width="85" height="33" viewBox="0 0 85 33" fill="none" xmlns="http://www.w3.org/2000/svg">
<path d="M0.82 0.999999H3.02V15H0.82V0.999999ZM7.12766 15.2C6.06099 15.2 5.25432 14.9 4.70766 14.3C4.16099 13.6867 3.88766 12.8133 3.88766 11.68V10.88H5.96766V11.84C5.96766 12.7467 6.34766 13.2 7.10766 13.2C7.48099 13.2 7.76099 13.0933 7.94766 12.88C8.14766 12.6533 8.24766 12.2933 8.24766 11.8C8.24766 11.2133 8.11432 10.7 7.84766 10.26C7.58099 9.80667 7.08766 9.26667 6.36766 8.64C5.46099 7.84 4.82766 7.12 4.46766 6.48C4.10766 5.82667 3.92766 5.09333 3.92766 4.28C3.92766 3.17333 4.20766 2.32 4.76766 1.72C5.32766 1.10667 6.14099 0.799999 7.20766 0.799999C8.26099 0.799999 9.05432 1.10667 9.58766 1.72C10.1343 2.32 10.4077 3.18667 10.4077 4.32V4.9H8.32766V4.18C8.32766 3.7 8.23432 3.35333 8.04766 3.14C7.86099 2.91333 7.58766 2.8 7.22766 2.8C6.49432 2.8 6.12766 3.24667 6.12766 4.14C6.12766 4.64667 6.26099 5.12 6.52766 5.56C6.80766 6 7.30766 6.53333 8.02766 7.16C8.94766 7.96 9.58099 8.68667 9.92766 9.34C10.2743 9.99333 10.4477 10.76 10.4477 11.64C10.4477 12.7867 10.161 13.6667 9.58766 14.28C9.02766 14.8933 8.20766 15.2 7.12766 15.2ZM14.4891 15.2C13.4091 15.2 12.5824 14.8933 12.0091 14.28C11.4357 13.6667 11.1491 12.8 11.1491 11.68V4.32C11.1491 3.2 11.4357 2.33333 12.0091 1.72C12.5824 1.10667 13.4091 0.799999 14.4891 0.799999C15.5691 0.799999 16.3957 1.10667 16.9691 1.72C17.5424 2.33333 17.8291 3.2 17.8291 4.32V11.68C17.8291 12.8 17.5424 13.6667 16.9691 14.28C16.3957 14.8933 15.5691 15.2 14.4891 15.2ZM14.4891 13.2C15.2491 13.2 15.6291 12.74 15.6291 11.82V4.18C15.6291 3.26 15.2491 2.8 14.4891 2.8C13.7291 2.8 13.3491 3.26 13.3491 4.18V11.82C13.3491 12.74 13.7291 13.2 14.4891 13.2ZM18.9169 0.999999H24.7369V3H21.1169V6.9H23.9569V8.9H21.1169V15H18.9169V0.999999ZM27.3072 3H25.0072V0.999999H31.8072V3H29.5072V15H27.3072V3ZM0.82 18H4.06C5.15333 18 5.97333 18.2933 6.52 18.88C7.06667 19.4667 7.34 20.3267 7.34 21.46V22.84C7.34 23.9733 7.06667 24.8333 6.52 25.42C5.97333 26.0067 5.15333 26.3 4.06 26.3H3.02V32H0.82V18ZM4.06 24.3C4.42 24.3 4.68667 24.2 4.86 24C5.04667 23.8 5.14 23.46 5.14 22.98V21.32C5.14 20.84 5.04667 20.5 4.86 20.3C4.68667 20.1 4.42 20 4.06 20H3.02V24.3H4.06ZM10.8348 18H14.0948C15.2282 18 16.0548 18.2667 16.5748 18.8C17.0948 19.32 17.3548 20.1267 17.3548 21.22V22.08C17.3548 23.5333 16.8748 24.4533 15.9148 24.84V24.88C16.4482 25.04 16.8215 25.3667 17.0348 25.86C17.2615 26.3533 17.3748 27.0133 17.3748 27.84V30.3C17.3748 30.7 17.3882 31.0267 17.4148 31.28C17.4415 31.52 17.5082 31.76 17.6148 32H15.3748C15.2948 31.7733 15.2415 31.56 15.2148 31.36C15.1882 31.16 15.1748 30.8 15.1748 30.28V27.72C15.1748 27.08 15.0682 26.6333 14.8548 26.38C14.6548 26.1267 14.3015 26 13.7948 26H13.0348V32H10.8348V18ZM13.8348 24C14.2748 24 14.6015 23.8867 14.8148 23.66C15.0415 23.4333 15.1548 23.0533 15.1548 22.52V21.44C15.1548 20.9333 15.0615 20.5667 14.8748 20.34C14.7015 20.1133 14.4215 20 14.0348 20H13.0348V24H13.8348ZM24.3813 32.2C23.3013 32.2 22.4746 31.8933 21.9013 31.28C21.3279 30.6667 21.0413 29.8 21.0413 28.68V21.32C21.0413 20.2 21.3279 19.3333 21.9013 18.72C22.4746 18.1067 23.3013 17.8 24.3813 17.8C25.4613 17.8 26.2879 18.1067 26.8613 18.72C27.4346 19.3333 27.7213 20.2 27.7213 21.32V28.68C27.7213 29.8 27.4346 30.6667 26.8613 31.28C26.2879 31.8933 25.4613 32.2 24.3813 32.2ZM24.3813 30.2C25.1413 30.2 25.5213 29.74 25.5213 28.82V21.18C25.5213 20.26 25.1413 19.8 24.3813 19.8C23.6213 19.8 23.2413 20.26 23.2413 21.18V28.82C23.2413 29.74 23.6213 30.2 24.3813 30.2ZM34.6291 32.2C33.5624 32.2 32.7491 31.9 32.1891 31.3C31.6291 30.6867 31.3491 29.8133 31.3491 28.68V21.32C31.3491 20.1867 31.6291 19.32 32.1891 18.72C32.7491 18.1067 33.5624 17.8 34.6291 17.8C35.6957 17.8 36.5091 18.1067 37.0691 18.72C37.6291 19.32 37.9091 20.1867 37.9091 21.32V22.52H35.8291V21.18C35.8291 20.26 35.4491 19.8 34.6891 19.8C33.9291 19.8 33.5491 20.26 33.5491 21.18V28.84C33.5491 29.7467 33.9291 30.2 34.6891 30.2C35.4491 30.2 35.8291 29.7467 35.8291 28.84V26.1H34.7291V24.1H37.9091V28.68C37.9091 29.8133 37.6291 30.6867 37.0691 31.3C36.5091 31.9 35.6957 32.2 34.6291 32.2ZM41.6216 18H44.8816C46.0149 18 46.8416 18.2667 47.3616 18.8C47.8816 19.32 48.1416 20.1267 48.1416 21.22V22.08C48.1416 23.5333 47.6616 24.4533 46.7016 24.84V24.88C47.2349 25.04 47.6082 25.3667 47.8216 25.86C48.0482 26.3533 48.1616 27.0133 48.1616 27.84V30.3C48.1616 30.7 48.1749 31.0267 48.2016 31.28C48.2282 31.52 48.2949 31.76 48.4016 32H46.1616C46.0816 31.7733 46.0282 31.56 46.0016 31.36C45.9749 31.16 45.9616 30.8 45.9616 30.28V27.72C45.9616 27.08 45.8549 26.6333 45.6416 26.38C45.4416 26.1267 45.0882 26 44.5816 26H43.8216V32H41.6216V18ZM44.6216 24C45.0616 24 45.3882 23.8867 45.6016 23.66C45.8282 23.4333 45.9416 23.0533 45.9416 22.52V21.44C45.9416 20.9333 45.8482 20.5667 45.6616 20.34C45.4882 20.1133 45.2082 20 44.8216 20H43.8216V24H44.6216ZM53.688 18H56.668L58.948 32H56.748L56.348 29.22V29.26H53.848L53.448 32H51.408L53.688 18ZM56.088 27.36L55.108 20.44H55.068L54.108 27.36H56.088ZM62.3153 18H65.4553L66.8553 28.02H66.8953L68.2953 18H71.4353V32H69.3553V21.4H69.3153L67.7153 32H65.8753L64.2753 21.4H64.2353V32H62.3153V18ZM75.377 18H78.517L79.917 28.02H79.957L81.357 18H84.497V32H82.417V21.4H82.377L80.777 32H78.937L77.337 21.4H77.297V32H75.377V18Z" fill="white"/>
<path d="M35.2755 0.999999H38.4155L39.8155 11.02H39.8555L41.2555 0.999999H44.3955V15H42.3155V4.4H42.2755L40.6755 15H38.8355L37.2355 4.4H37.1955V15H35.2755V0.999999ZM45.6372 0.999999H51.6372V3H47.8372V6.7H50.8572V8.7H47.8372V13H51.6372V15H45.6372V0.999999ZM52.5028 0.999999H55.8628C56.9561 0.999999 57.7761 1.29333 58.3228 1.88C58.8695 2.46667 59.1428 3.32667 59.1428 4.46V11.54C59.1428 12.6733 58.8695 13.5333 58.3228 14.12C57.7761 14.7067 56.9561 15 55.8628 15H52.5028V0.999999ZM55.8228 13C56.1828 13 56.4561 12.8933 56.6428 12.68C56.8428 12.4667 56.9428 12.12 56.9428 11.64V4.36C56.9428 3.88 56.8428 3.53333 56.6428 3.32C56.4561 3.10667 56.1828 3 55.8228 3H54.7028V13H55.8228ZM60.2278 0.999999H62.4278V15H60.2278V0.999999ZM66.7755 15.2C65.7221 15.2 64.9155 14.9 64.3555 14.3C63.8088 13.7 63.5355 12.8533 63.5355 11.76V4.24C63.5355 3.14667 63.8088 2.3 64.3555 1.7C64.9155 1.1 65.7221 0.799999 66.7755 0.799999C67.8288 0.799999 68.6288 1.1 69.1755 1.7C69.7355 2.3 70.0155 3.14667 70.0155 4.24V5.72H67.9355V4.1C67.9355 3.23333 67.5688 2.8 66.8355 2.8C66.1021 2.8 65.7355 3.23333 65.7355 4.1V11.92C65.7355 12.7733 66.1021 13.2 66.8355 13.2C67.5688 13.2 67.9355 12.7733 67.9355 11.92V9.78H70.0155V11.76C70.0155 12.8533 69.7355 13.7 69.1755 14.3C68.6288 14.9 67.8288 15.2 66.7755 15.2ZM72.6317 0.999999H75.6117L77.8917 15H75.6917L75.2917 12.22V12.26H72.7917L72.3917 15H70.3517L72.6317 0.999999ZM75.0317 10.36L74.0517 3.44H74.0117L73.0517 10.36H75.0317ZM78.5591 0.999999H80.7591V13H84.3791V15H78.5591V0.999999Z" fill="#F22283"/>
</svg>
