<svg width="25" height="25" viewBox="0 0 25 25" fill="none" xmlns="http://www.w3.org/2000/svg">
<g clip-path="url(#clip0_11_71)">
<path fill-rule="evenodd" clip-rule="evenodd" d="M22.8009 12.4004C22.801 9.51783 21.6592 6.75176 19.6254 4.70898C17.5916 2.66621 14.8315 1.51269 11.949 1.5V0C13.5782 -0.00316263 15.1921 0.315462 16.698 0.9375C18.2038 1.55954 19.5721 2.47292 20.7241 3.625C21.8762 4.77708 22.7895 6.1455 23.4115 7.65137C24.0335 9.15723 24.3521 10.7711 24.3489 12.4004H22.798H22.8009ZM16.601 12.4004C16.6043 11.7864 16.4866 11.1769 16.2546 10.6084C16.0226 10.0399 15.6809 9.52336 15.249 9.08691C14.8171 8.65046 14.3035 8.30334 13.7374 8.06543C13.1713 7.82752 12.564 7.70334 11.95 7.7002V6.2002C12.7658 6.19434 13.5746 6.35065 14.3295 6.66016C15.0843 6.96966 15.7702 7.42604 16.3471 8.00293C16.9239 8.57982 17.3804 9.26565 17.6899 10.0205C17.9994 10.7754 18.1558 11.5846 18.1499 12.4004H16.5989H16.601ZM11.95 3.09961C13.1726 3.09498 14.384 3.3331 15.5144 3.79883C16.6448 4.26456 17.6718 4.94897 18.5364 5.81348C19.4009 6.67798 20.0857 7.70552 20.5515 8.83594C21.0172 9.96635 21.2546 11.1778 21.2499 12.4004H19.7C19.7037 10.3389 18.8897 8.35967 17.4365 6.89746C15.9833 5.43525 14.0095 4.60861 11.9479 4.59961V3.09961H11.95ZM15.729 16.4004L17.6669 14.5H17.7309C18.0616 14.1732 18.5025 13.9814 18.9671 13.9629C19.4316 13.9444 19.8863 14.1009 20.242 14.4004C20.267 14.5004 20.2909 14.5 20.3139 14.5L23.802 18C23.9754 18.1692 24.1132 18.3715 24.2073 18.5947C24.3015 18.818 24.3499 19.0575 24.3499 19.2998C24.3499 19.5421 24.3015 19.7826 24.2073 20.0059C24.1132 20.2291 23.9754 20.4304 23.802 20.5996L21.476 23C20.3766 23.9209 18.9665 24.3858 17.535 24.2998C14.394 24.2998 10.0889 22.7 5.82295 18.5L6.23295 18.0996L5.81596 18.5C3.17854 15.9918 1.27671 12.8104 0.315959 9.2998C-0.350041 6.5998 0.0279379 4.0998 1.32594 2.7998L3.65196 0.5C4.00988 0.162683 4.48313 -0.0253906 4.97496 -0.0253906C5.46678 -0.0253906 5.94003 0.162683 6.29795 0.5L9.78596 4C9.81096 4 9.83295 3.99961 9.85395 4.09961C10.1559 4.42662 10.3249 4.85473 10.328 5.2998C10.3255 5.77675 10.154 6.23717 9.84394 6.59961H9.78596L7.84895 8.59961C7.71736 8.73078 7.61296 8.88699 7.54173 9.05859C7.47049 9.23019 7.43382 9.41381 7.43382 9.59961C7.43382 9.78541 7.47049 9.97 7.54173 10.1416C7.61296 10.3132 7.71736 10.4684 7.84895 10.5996L10.786 13.5L13.726 16.4004C13.8517 16.541 14.0058 16.6534 14.178 16.7305C14.3502 16.8075 14.5368 16.8467 14.7254 16.8467C14.9141 16.8467 15.1007 16.8075 15.2729 16.7305C15.4451 16.6534 15.5992 16.541 15.725 16.4004H15.729ZM22.252 20L22.7059 19.5C22.7353 19.4756 22.759 19.4447 22.7752 19.4102C22.7914 19.3756 22.7998 19.338 22.7998 19.2998C22.7998 19.2616 22.7914 19.224 22.7752 19.1895C22.759 19.1549 22.7353 19.124 22.7059 19.0996L19.272 15.7002C19.255 15.6002 19.2379 15.5996 19.2219 15.5996C19.202 15.5548 19.1694 15.517 19.1282 15.4902C19.0871 15.4635 19.039 15.4492 18.9899 15.4492C18.9409 15.4492 18.8928 15.4635 18.8517 15.4902C18.8105 15.517 18.7779 15.5548 18.7579 15.5996C18.7439 15.5996 18.728 15.6002 18.712 15.7002L18.312 16.0996L22.252 20ZM8.23493 6L8.63496 5.59961C8.64696 5.59961 8.66194 5.6 8.67594 5.5C8.75994 5.5 8.77595 5.3998 8.77595 5.2998C8.76121 5.22536 8.72666 5.15607 8.67594 5.09961C8.65894 5.09961 8.64196 5.1 8.62596 5L5.19694 1.59961C5.13128 1.5509 5.0517 1.52539 4.96995 1.52539C4.8882 1.52539 4.80862 1.5509 4.74296 1.59961L4.28895 2.09961L8.23493 6ZM9.69194 14.5996L6.75196 11.7002C6.19602 11.1427 5.88383 10.3869 5.88383 9.59961C5.88383 8.81229 6.19602 8.05749 6.75196 7.5L7.13996 7.09961L3.19795 3.2002L2.42295 3.90039C1.52295 4.80039 1.29295 6.8 1.82295 9C2.8208 12.1752 4.57257 15.0612 6.92854 17.4121C9.28451 19.763 12.1746 21.509 15.3519 22.5C17.5519 23 19.48 22.8004 20.38 21.9004L21.156 21.0996L17.213 17.2002L16.825 17.5C16.5541 17.7844 16.2283 18.0103 15.8673 18.165C15.5063 18.3197 15.1177 18.4004 14.725 18.4004C14.3322 18.4004 13.9436 18.3197 13.5826 18.165C13.2216 18.0103 12.8958 17.7844 12.6249 17.5L9.69194 14.5996Z" fill="#F22283"/>
</g>
<defs>
<clipPath id="clip0_11_71">
<rect width="24.344" height="24.3" fill="white"/>
</clipPath>
</defs>
</svg>
